inDegrees=yes
name=ik_S49_A11_T02
DataType=double
version=3
OpenSimVersion=4.3-2021-08-27-4bc7ad9
endheader
time	pelvis_tilt	pelvis_list	pelvis_rotation	pelvis_tx	pelvis_ty	pelvis_tz	hip_flexion_r	hip_adduction_r	hip_rotation_r	knee_angle_r	knee_angle_r_beta	ankle_angle_r	subtalar_angle_r	mtp_angle_r	hip_flexion_l	hip_adduction_l	hip_rotation_l	knee_angle_l	knee_angle_l_beta	ankle_angle_l	subtalar_angle_l	mtp_angle_l	lumbar_extension	lumbar_bending	lumbar_rotation	arm_flex_r	arm_add_r	arm_rot_r	elbow_flex_r	pro_sup_r	wrist_flex_r	wrist_dev_r	arm_flex_l	arm_add_l	arm_rot_l	elbow_flex_l	pro_sup_l	wrist_flex_l	wrist_dev_l
12.31999999999983	1.371580848446166	0.1733438868099368	46.30791547706165	0	0.9399999999999999	0	35.77708215056368	-9.771516476127772	-9.390509613551913	40.52433109083069	0.7072830047033007	0	0	0	35.77708215056368	-9.771516476127772	-9.390509613551913	40.52433109083069	0.7072830047033007	0	0	0	0.8763278777254083	0.1247703784168434	12.78436767754008	40.40627996800533	-0.09833137057745064	-9.809459389377277	32.19884487153355	101.0405657900757	0	0	-0.3315864075349667	-2.902589724673804	0.3074044483664257	1.559910916523862	100.8781738352566	0	0
12.33999999999983	1.275617788021955	0.1098855968528505	46.30206556865911	0	0.9399999999999999	0	35.85488934674096	-9.776018175507822	-9.399462439116743	40.63386270350026	0.709194691979404	0	0	0	35.85488934674096	-9.776018175507822	-9.399462439116743	40.63386270350026	0.709194691979404	0	0	0	0.7654783834455791	0.141221589306139	12.70123743296707	37.25444338715767	-0.5092261402104239	-9.221604855857002	29.99430797100964	100.7201607113368	0	0	-0.1342356317085643	-2.809152121644519	0.2292196908242125	1.559674742160659	100.8713650954364	0	0
12.35999999999983	1.174770690057011	0.04432935972951928	46.28882533334561	0	0.9399999999999999	0	35.92484715418586	-9.780088752574049	-9.407543750902464	40.73134187848502	0.7108960245350157	0	0	0	35.92484715418586	-9.780088752574049	-9.407543750902464	40.73134187848502	0.7108960245350157	0	0	0	0.6501428334586953	0.1590436284073902	12.62799492677404	34.42331669071249	-0.8758735015994713	-8.753359082044266	27.13081271368089	100.5666157867997	0	0	0.00826907194837522	-2.733236769997199	0.1700873489088302	1.568318763890528	100.8400945973462	0	0
12.37999999999982	1.081296073833585	0.009702394400569518	46.33466373431238	0	0.9399999999999999	0	35.99593932515235	-9.7841862439357	-9.41571327549727	40.83043869124605	0.712625590195928	0	0	0	35.99593932515235	-9.7841862439357	-9.41571327549727	40.83043869124605	0.712625590195928	0	0	0	0.5622055374429139	0.1965525719166681	12.54291861623849	31.48550162682823	-1.312882128347707	-8.091137237587224	24.33240726752863	100.4400107412157	0	0	0.08463076361195418	-2.640916401306951	0.1078149603357222	1.658123803250136	100.859948743303	0	0
12.39999999999982	0.9873949675036412	-0.01434180384884154	46.42622583288542	0	0.9399999999999999	0	36.05891540731157	-9.787794822368342	-9.422929196343995	40.91799041749285	0.7141536560847394	0	0	0	36.05891540731157	-9.787794822368342	-9.422929196343995	40.91799041749285	0.7141536560847394	0	0	0	0.4832330050022394	0.242277802718166	12.42213970443152	28.68142011646571	-1.735304842438349	-7.020600815094269	21.46273988374199	100.252606662575	0	0	0.126017412627998	-2.522370257149784	0.02151608011615005	1.574631462682273	100.8461782974174	0	0
12.41999999999982	0.9451569601436378	-0.01856866874526992	46.42670799895412	0	0.9399999999999999	0	36.06255202308812	-9.788088757539771	-9.423443985873721	40.92199517661029	0.7142235523170879	0	0	0	36.06255202308812	-9.788088757539771	-9.423443985873721	40.92199517661029	0.7142235523170879	0	0	0	0.4509871819356676	0.26976662934996	12.38574548218772	28.73110055175502	-1.803859245466565	-6.96046269087708	18.77013097611721	100.701260456258	0	0	0.05770675573852631	-2.478731301317361	-0.07395485465919686	1.584299627735863	100.7856219181266	0	0
12.43999999999982	0.7497562828916722	-0.1176686102356	46.48348495519023	0	0.9399999999999999	0	36.11247867521779	-9.790965933895798	-9.429191625915518	40.99049822898122	0.7154191561286268	0	0	0	36.11247867521779	-9.790965933895798	-9.429191625915518	40.99049822898122	0.7154191561286268	0	0	0	0.2442565776496582	0.3445532655487584	12.25446685964213	26.27576118665213	-2.129253528073692	-5.616745878185835	13.38976875598269	100.6102644951534	0	0	0.3488838267888033	-2.265300438082084	-0.1870351288962416	1.575748810645233	100.7004985449516	0	0
12.45999999999982	0.7509022563001782	-0.1124838816781529	46.47648155585177	0	0.9399999999999999	0	36.11787115435028	-9.791400503389822	-9.429954338235053	40.99640704278266	0.7155222843843492	0	0	0	36.11787115435028	-9.791400503389822	-9.429954338235053	40.99640704278266	0.7155222843843492	0	0	0	0.2489110655945094	0.3468811670134267	12.25552530175269	26.25003029912746	-2.115480842868381	-5.607984235301363	10.73742216840133	100.723994100779	0	0	0.252268902168608	-2.276016641277028	-0.1933591791534732	1.56891097877496	100.6288924516705	0	0
12.47999999999982	0.7896347812208956	-0.07949014291294725	46.66832547592712	0	0.9399999999999999	0	36.2161074139952	-9.796840991451791	-9.440993100328592	41.13462504071903	0.7179346435338536	0	0	0	36.2161074139952	-9.796840991451791	-9.440993100328592	41.13462504071903	0.7179346435338536	0	0	0	0.3006200184026175	0.3311038836603052	11.97766994980826	21.10857528728292	-2.123532477286192	-4.14259425026443	10.54490195767792	99.22392996211099	0	0	0.07868960604671285	-2.349655073102361	-0.3102037980739501	1.550704373476719	100.6068014649615	0	0
12.49999999999982	0.8110606381342217	-0.07704803529798777	46.63584870457154	0	0.9399999999999999	0	36.22977860110926	-9.797715064718577	-9.442686246623092	41.15094351079909	0.7182194545656388	0	0	0	36.22977860110926	-9.797715064718577	-9.442686246623092	41.15094351079909	0.7182194545656388	0	0	0	0.3170394411336221	0.3286329512118639	11.92985173822949	18.71691660403902	-2.026391023308471	-3.212168243463724	3.643476463587945	99.04846024722815	0	0	-0.03464032232433991	-2.397876469828403	-0.3836472870430641	1.508001379922285	100.5269388621561	0	0
12.51999999999982	0.8309515320151245	-0.07031937845285836	46.71632911746821	0	0.9399999999999999	0	36.23327002120521	-9.797992008671207	-9.44317606630465	41.15476251508009	0.7182861087644902	0	0	0	36.23327002120521	-9.797992008671207	-9.44317606630465	41.15476251508009	0.7182861087644902	0	0	0	0.3351390553234091	0.315590741579532	11.75059159705516	16.41734386711796	-1.837346612745166	-2.260954330006081	1.660112869313904	98.64370007119959	0	0	-0.1568158271724204	-2.44491311208582	-0.4593950661130357	1.494487590328454	100.4115475972625	0	0
